<?xml version="1.0" standalone="no"?><!DOCTYPE svg PUBLIC "-//W3C//DTD SVG 1.1//EN" "http://www.w3.org/Graphics/SVG/1.1/DTD/svg11.dtd"><svg class="icon" height="512" viewBox="0 0 1024 1024" version="1.1" xmlns="http://www.w3.org/2000/svg"><path d="M769.979733 682.666667h-33.860266l0.580266-33.826134a34.133333 34.133333 0 0 0-68.232533-1.194666L667.8528 682.666667H632.832a34.133333 34.133333 0 0 0-33.792 34.133333c0 18.978133 15.121067 34.133333 33.792 34.133333h33.860267l-0.580267 33.826134a34.133333 34.133333 0 0 0 68.266667 1.194666L734.9248 750.933333h35.054933a34.133333 34.133333 0 0 0 0-68.266666M496.605867 307.2a102.4 102.4 0 1 1 0 204.8 102.4 102.4 0 0 1 0-204.8m153.668266 279.995733a34.167467 34.167467 0 0 0-15.018666-45.8752c-6.690133-3.3792-13.653333-6.109867-20.548267-8.9088A169.847467 169.847467 0 0 0 667.272533 409.6a170.666667 170.666667 0 0 0-341.333333 0c0 53.384533 25.019733 100.4544 63.3856 131.754667A272.827733 272.827733 0 0 0 238.933333 785.066667a34.133333 34.133333 0 0 0 68.266667 0 204.8 204.8 0 0 1 297.198933-182.818134 34.133333 34.133333 0 0 0 45.8752-15.0528" fill="#999999" /></svg>